<?xml version="1.0" encoding="UTF-8" standalone="no"?>
<!-- Created with Inkscape (http://www.inkscape.org/) -->

<svg
   width="404.53299mm"
   height="404.53299mm"
   viewBox="0 0 404.53299 404.53299"
   version="1.1"
   id="svg1"
   xmlns="http://www.w3.org/2000/svg"
   xmlns:svg="http://www.w3.org/2000/svg">
  <defs
     id="defs1" />
  <g
     id="layer1"
     transform="translate(32.808332,135.46667)">
    <g
       id="g1"
       transform="translate(37.695664)">
      <path
         style="fill:#0e3154;stroke-width:0.264583"
         d="m 128.71979,267.34362 c -1.45521,-0.94049 -3.59833,-2.28455 -4.7625,-2.9868 -2.03494,-1.22756 -13.30415,-8.20531 -15.21354,-9.42007 -0.50932,-0.32401 -1.75948,-1.10376 -2.77812,-1.73273 -1.01865,-0.62897 -2.26881,-1.40679 -2.77813,-1.72847 -0.50932,-0.32168 -2.1762,-1.35427 -3.704167,-2.29462 -1.527968,-0.94039 -4.325937,-2.66939 -6.217708,-3.84223 -12.940294,-8.02262 -25.290674,-15.65333 -29.236458,-18.06379 -2.546614,-1.55573 -5.539793,-3.41257 -6.651492,-4.12631 -1.1117,-0.71374 -2.838106,-1.79803 -3.836459,-2.40956 -5.896424,-3.61178 -21.448897,-13.39961 -21.738748,-13.68113 -0.338005,-0.3283 2.137516,-2.81551 13.705866,-13.77066 1.382448,-1.30916 7.88244,-7.5623 14.444424,-13.89584 6.561984,-6.33352 14.119596,-13.59911 16.794692,-16.14572 2.675122,-2.54662 7.069349,-6.79276 9.76495,-9.43589 2.695628,-2.64311 6.329151,-6.15545 8.074528,-7.80521 1.74535,-1.64973 7.047702,-6.75 11.783032,-11.3339 7.96565,-7.71097 19.611,-18.88125 21.61826,-20.73632 0.47077,-0.43508 0.90421,-0.73967 0.96319,-0.67683 0.059,0.0628 0.17928,0.76903 0.26731,1.5694 0.088,0.80036 0.39941,3.5388 0.69199,6.08542 0.29257,2.54661 0.71302,6.35661 0.93435,8.46666 0.35877,3.42106 2.05091,18.84487 2.36569,21.56354 0.0674,0.58209 0.30525,2.96334 0.52856,5.29167 0.22331,2.32833 0.46553,4.76911 0.53829,5.42396 0.0727,0.65484 0.60764,5.5364 1.18867,10.84791 0.58102,5.31152 1.29463,11.68136 1.58578,14.15521 0.29115,2.47386 0.89096,7.8912 1.33294,12.03854 0.44196,4.14735 1.09972,10.16 1.46167,13.36146 0.36197,3.20146 1.37155,12.66693 2.24351,21.03438 0.87198,8.36745 1.64264,15.68979 1.71259,16.27187 0.44881,3.73433 0.92924,7.91906 1.07836,9.39271 0.0957,0.94589 0.2204,1.79954 0.27707,1.89701 0.0567,0.0975 -1.77329,1.33874 -4.06661,2.75836 -2.29333,1.41962 -5.26677,3.27464 -6.6076,4.12226 -1.34086,0.84762 -2.59101,1.53541 -2.77813,1.52839 -0.18714,-0.007 -1.53085,-0.78218 -2.98606,-1.72267 z m 94.72832,-55.61304 c -0.69569,-1.77546 -3.80391,-10.24548 -4.63621,-12.63385 -1.11221,-3.19156 -2.2015,-6.1948 -4.36647,-12.03854 -0.78172,-2.11005 -3.10748,-8.4799 -5.16838,-14.15521 -7.49276,-20.63366 -14.12994,-38.77241 -14.55086,-39.76611 -0.39034,-0.92149 -0.30954,-1.63893 0.20558,-1.82538 0.25466,-0.0922 3.02286,-1.29154 6.15156,-2.66523 3.1287,-1.37372 6.9387,-3.0289 8.46667,-3.67816 1.52797,-0.64929 3.67109,-1.58253 4.7625,-2.07386 3.86998,-1.74228 11.01198,-4.86063 13.22917,-5.77619 1.23692,-0.51076 3.2975,-1.41148 4.57909,-2.00155 l 2.3301,-1.07289 4.68135,1.60348 c 6.69298,2.29257 16.96366,5.86129 25.848,8.98129 4.2201,1.48203 8.50635,2.97182 9.525,3.31065 1.01864,0.33885 3.34036,1.16914 5.15937,1.84512 1.81901,0.67599 4.85511,1.75488 6.74688,2.39755 1.89177,0.64265 4.89809,1.73239 6.68073,2.4216 l 3.24114,1.25315 v 15.66629 15.66627 l -1.12448,0.76859 c -0.61846,0.42272 -2.79135,1.78184 -4.82864,3.02027 -2.0373,1.23841 -6.32355,3.88631 -9.525,5.8842 -6.64478,4.14676 -10.73941,6.69293 -16.40417,10.20064 -8.42981,5.21991 -16.00023,9.92751 -18.91771,11.76383 -1.67349,1.0533 -4.11427,2.54828 -5.42396,3.32213 -1.30968,0.77386 -4.46484,2.71513 -7.01145,4.31393 -5.23494,3.28655 -9.23312,5.731 -9.37372,5.731 -0.0521,0 -0.17631,-0.20836 -0.27609,-0.46302 z M 2.116668,188.89617 c -3.7107812,-2.31899 -8.4303922,-5.28855 -10.4880567,-6.59903 -2.0576383,-1.31048 -3.8011893,-2.3827 -3.8745323,-2.3827 -0.07334,0 -3.569043,-2.15794 -7.768193,-4.79542 -4.199165,-2.63747 -8.408749,-5.26655 -9.354634,-5.84239 -0.945886,-0.57587 -2.106745,-1.34102 -2.579688,-1.70035 l -0.859896,-0.65336 0.0048,-101.652677 0.0048,-101.652677 1.384311,-0.910762 c 1.285986,-0.846074 12.051178,-7.395223 19.375982,-11.787621 1.74625,-1.04716 7.9970315,-4.821233 13.8906251,-8.386826 5.8935937,-3.565594 12.7992189,-7.738068 15.3458329,-9.272162 14.828176,-8.932579 24.745077,-14.89752 28.707292,-17.267226 2.473854,-1.479553 6.402916,-3.859888 8.731249,-5.289638 4.58859,-2.817688 10.490068,-6.38248 21.034375,-12.705801 18.070565,-10.83675 22.303131,-13.38741 24.870825,-14.98783 2.49953,-1.55792 20.71246,-12.49543 28.17826,-16.92202 2.85393,-1.69214 2.97741,-1.7378 3.68977,-1.36455 1.30198,0.68216 39.62265,23.71949 46.31635,27.84407 1.01864,0.62768 4.88817,2.95039 8.59896,5.16158 3.71078,2.21119 7.75891,4.651405 8.99584,5.4227 1.23693,0.771295 2.60614,1.608878 3.04271,1.861296 0.43655,0.252418 2.40109,1.439966 4.36562,2.638997 1.96453,1.199028 4.10766,2.471507 4.7625,2.827726 1.15665,0.62919 1.99258,1.131787 10.70957,6.439109 2.2706,1.382448 5.87975,3.563535 8.02034,4.846862 2.14058,1.283327 6.09563,3.680217 8.78898,5.326423 2.69333,1.646205 5.3127,3.229115 5.82083,3.517577 0.50811,0.288459 1.51914,0.885523 2.24674,1.326803 0.7276,0.44128 3.34698,2.022779 5.82083,3.514442 2.47386,1.49166 6.10526,3.683013 8.06979,4.869672 1.96454,1.186659 4.45659,2.687257 5.53789,3.33466 1.08133,0.647406 2.01446,1.327417 2.07367,1.511139 0.0592,0.183721 -0.2963,0.719502 -0.79004,1.190625 -0.49374,0.471125 -2.67703,2.586527 -4.8518,4.700894 -2.17474,2.11437 -5.20425,5.02797 -6.73222,6.474669 -3.14925,2.981754 -16.27269,15.659407 -23.41562,22.620221 -2.61938,2.552592 -8.39391,8.146881 -12.83229,12.4317548 -4.43839,4.2848715 -10.15339,9.8215131 -12.7,12.3036461 -2.54662,2.4821329 -6.47422,6.2965491 -8.728,8.4764771 -2.2538,2.179931 -6.0638,5.874769 -8.46666,8.210754 -4.42262,4.299484 -17.13783,16.552682 -22.22096,21.413528 -1.52394,1.457298 -4.6791,4.49998 -7.01145,6.761533 -7.85228,7.613861 -12.38774,11.980359 -25.27501,24.333517 -7.05776,6.765237 -14.79683,14.206114 -17.19792,16.535294 -2.40109,2.32918 -7.04191,6.794023 -10.31293,9.921871 -12.79491,12.23497 -19.615868,18.77854 -23.424969,22.47242 -2.184744,2.11865 -5.637556,5.45679 -7.672916,7.41809 -2.035361,1.9613 -5.605648,5.41729 -7.933981,7.67998 -2.328334,2.26267 -7.328959,7.08369 -11.1125,10.71338 -3.783542,3.62968 -8.78078,8.44854 -11.104986,10.70859 -2.324206,2.26001 -4.291991,4.16866 -4.372848,4.24142 -0.08086,0.0728 -1.929712,1.86198 -4.108556,3.97603 -2.178843,2.11405 -7.711995,7.46998 -12.295901,11.9021 -4.583907,4.43209 -9.591067,9.28063 -11.126999,10.77449 -1.535933,1.49387 -2.8456207,2.70912 -2.9104171,2.70058 -0.064796,-0.008 -3.1538862,-1.91291 -6.8646674,-4.23188 z m 164.041662,-4.85071 c -2.38839,-0.83389 -3.12949,-1.25786 -4.75758,-2.72164 -1.68346,-1.51357 -2.96052,-3.42987 -3.90212,-5.85531 -0.57643,-1.48479 -0.69133,-2.22178 -0.7093,-4.54991 -0.0196,-2.54489 0.0503,-2.95581 0.83381,-4.89479 0.47043,-1.16416 1.38589,-2.79042 2.03435,-3.61391 1.44341,-1.83291 4.07681,-3.75399 6.14582,-4.4834 1.90956,-0.6732 5.27209,-0.92011 7.31584,-0.53723 4.60298,0.86235 8.82716,4.63947 10.3963,9.296 0.69101,2.05058 0.69019,6.46861 -0.003,8.46667 -1.45621,4.20624 -5.03859,7.74544 -9.11521,9.00533 -2.39011,0.73866 -5.94249,0.69046 -8.24037,-0.11181 z m 3.84773,-68.34402 c -7.88241,-1.7902 -12.55752,-10.09116 -9.94299,-17.654402 1.45447,-4.207431 4.05816,-6.850142 8.42452,-8.550804 2.24843,-0.875745 6.14008,-0.97925 8.65095,-0.230082 4.28704,1.279128 7.67908,4.746836 9.06725,9.269492 0.6264,2.040806 0.53977,6.212076 -0.17212,8.288976 -1.20449,3.51403 -3.60518,6.20019 -7.04305,7.8805 -2.86882,1.40219 -5.77731,1.72472 -8.98456,0.99632 z m 109.47305,-4.16348 c -8.26551,-2.00356 -12.75414,-11.774332 -8.92514,-19.42804 2.82041,-5.637689 8.78539,-8.61105 14.9352,-7.444766 4.90472,0.930169 9.27523,5.150485 10.43676,10.078084 1.7763,7.535702 -2.5064,14.871012 -9.79006,16.768152 -1.84254,0.47993 -4.7388,0.49149 -6.65676,0.0266 z M 210.73544,91.742043 c -1.35856,-3.717501 -14.41461,-43.313772 -14.41461,-43.716521 0,-0.181981 1.45852,-1.682274 3.24115,-3.333962 3.02797,-2.805589 8.02894,-7.642278 14.34086,-13.869828 1.47492,-1.455209 3.8076,-3.708215 5.18369,-5.006684 2.76239,-2.606511 8.51271,-8.181258 16.39264,-15.8921213 5.18085,-5.0697024 19.41681,-18.8409922 24.60733,-23.8041467 1.52855,-1.461606 4.50998,-4.324339 6.6254,-6.361631 2.11543,-2.037292 6.81789,-6.557542 10.44996,-10.044999 3.63207,-3.487457 7.66435,-7.383026 8.96064,-8.65682 l 2.35689,-2.315988 2.8857,1.777654 c 1.58713,0.977709 3.35428,2.054465 3.92697,2.392788 l 1.04127,0.615138 v 51.958811 51.958819 l -0.99219,0.179017 c -0.5457,0.09848 -1.11125,0.249343 -1.25677,0.33528 -0.14552,0.08594 -0.38364,0.174492 -0.52916,0.196797 -0.43204,0.0662 -11.44284,3.268239 -14.02292,4.077996 -2.44314,0.766763 -19.47661,5.724948 -20.90208,6.084279 -0.43657,0.11004 -2.46063,0.695775 -4.49792,1.301618 -2.03729,0.605843 -10.07401,2.941082 -17.85937,5.189378 -7.78537,2.248324 -16.59599,4.801473 -19.57917,5.673672 -2.98318,0.872199 -5.51699,1.587262 -5.63071,1.589008 -0.11369,0.0026 -0.26111,-0.145653 -0.3276,-0.327554 z"
         id="path1" />
    </g>
  </g>
</svg>